<svg id="Capa_1" data-name="Capa 1" xmlns="http://www.w3.org/2000/svg" viewBox="0 0 512 222.63"><defs><style>.cls-1{fill:#5c4f9c;}.cls-2{fill:#1d1d1b;}.cls-3{fill:none;}</style></defs><title>ServiLimd</title><path class="cls-1" d="M295,116H279l97.27-88.42a9.42,9.42,0,0,1,12.68,0L486.19,116H470.14L382.32,35.52Z"/><path class="cls-2" d="M34.71,190.87a29.61,29.61,0,0,1-9.85-4.62l4.35-9.66a29.8,29.8,0,0,0,8.47,4.2,31.94,31.94,0,0,0,9.81,1.58q5.46,0,8.07-1.62a4.9,4.9,0,0,0,2.61-4.32,4.12,4.12,0,0,0-1.54-3.28,11.77,11.77,0,0,0-4-2.1c-1.61-.52-3.78-1.1-6.53-1.74a90.25,90.25,0,0,1-10.36-3,16.74,16.74,0,0,1-6.92-4.83A13,13,0,0,1,26,152.62a15.4,15.4,0,0,1,2.61-8.74,17.55,17.55,0,0,1,7.87-6.21,32.15,32.15,0,0,1,12.86-2.3,42.23,42.23,0,0,1,10.36,1.27,30.4,30.4,0,0,1,8.87,3.64l-4,9.73a30.89,30.89,0,0,0-15.35-4.35q-5.38,0-7.95,1.74A5.3,5.3,0,0,0,38.71,152a4.48,4.48,0,0,0,3,4.23A47.12,47.12,0,0,0,50.73,159a88.28,88.28,0,0,1,10.37,3A17.17,17.17,0,0,1,68,166.7c1.93,2.17,2.89,5.09,2.89,8.79a15.17,15.17,0,0,1-2.65,8.66,17.85,17.85,0,0,1-8,6.21,32.46,32.46,0,0,1-12.9,2.3A45.21,45.21,0,0,1,34.71,190.87Z"/><path class="cls-2" d="M123.36,181.42v10.29H80.48V136.32h41.86v10.29H93.22v34.81Zm-4.49-12.71H101.3V158.64h17.57Z"/><path class="cls-2" d="M246.55,136.32l-24,55.39H209.92L186,136.32h13.84l16.85,39.56,17.09-39.56Z"/><path class="cls-2" d="M251.93,136.32h12.82v55.39H251.93Z"/><path class="cls-1" d="M278.67,136.32h12.82v44.94h27.77v10.45H278.67Z"/><path class="cls-2" d="M327.25,136.32h12.82v55.39H327.25Z"/><path class="cls-2" d="M404.39,191.71l-.07-33.24L388,185.85h-5.78L366,159.19v32.52H354V136.32H364.6l20.73,34.42,20.41-34.42h10.52l.16,55.39Z"/><path class="cls-2" d="M430.34,136.32H455.5a35.44,35.44,0,0,1,15.95,3.44,25.85,25.85,0,0,1,10.76,9.7,29.57,29.57,0,0,1,0,29.11,25.76,25.76,0,0,1-10.76,9.69,35.31,35.31,0,0,1-15.95,3.45H430.34Zm24.53,44.86q8.31,0,13.25-4.63T473.07,164q0-7.9-4.95-12.54t-13.25-4.63H443.16v34.34Z"/><path class="cls-2" d="M171,173.9a18,18,0,0,0,11.4-17.48,18.35,18.35,0,0,0-11.28-17.65,30.84,30.84,0,0,0-12.78-2.45h-24v55.39h12.82v-45h10.44c3.85,0,6.78.84,8.78,2.5a10,10,0,0,1,0,14.28c-1.77,1.5-4.28,2.33-7.51,2.49v10.25H159l10.68,15.43h13.77Z"/><path class="cls-3" d="M370.28,91.39h24.6V116h-24.6Z"/><path class="cls-1" d="M392,87.56l5-8.31a1.23,1.23,0,0,0-1.67-1.66l-8.3,5a8.52,8.52,0,0,1-8.87,0L369.84,77a1.22,1.22,0,0,0-1.66,1.66l5,8.31a8.52,8.52,0,0,1,0,8.87l-5,8.31a1.22,1.22,0,0,0,1.66,1.66l8.31-5a8.52,8.52,0,0,1,8.87,0l8.3,5a1.23,1.23,0,0,0,1.67-1.66l-5-7.76A8.5,8.5,0,0,1,392,87.56Z"/></svg>